<?xml version="1.0" ?><svg id="Balloon" style="enable-background:new 0 0 32 32;" version="1.1" viewBox="0 0 32 32" xml:space="preserve" xmlns="http://www.w3.org/2000/svg" xmlns:xlink="http://www.w3.org/1999/xlink"><style type="text/css">
	.st0{fill:#16F293;}
	.st1{fill:#FFCE69;}
</style><g><path class="st0" d="M29,22.25H3c-0.552,0-1,0.447-1,1v3c0,0.553,0.448,1,1,1h26c0.553,0,1-0.447,1-1v-3   C30,22.697,29.553,22.25,29,22.25z"/><path class="st1" d="M10.219,20.428c0.19,0.23,0.473,0.364,0.772,0.364s0.582-0.134,0.772-0.364l4.737-5.756l2.148,2.611   c0.187,0.227,0.463,0.359,0.756,0.364c0.271-0.017,0.574-0.119,0.768-0.339L29.751,6.41c0.364-0.415,0.324-1.046-0.091-1.411   c-0.413-0.364-1.046-0.325-1.411,0.091l-8.803,10.014l-2.174-2.642c-0.381-0.462-1.165-0.462-1.544,0l-4.737,5.756l-3.533-4.293   c-0.352-0.427-0.981-0.488-1.407-0.137c-0.427,0.351-0.488,0.981-0.137,1.407L10.219,20.428z"/></g></svg>